# Exported from ProBuilder
# http://www.procore3d.com/probuilder
# 5/3/2019 5:37:32 PM

mtllib ./xObject.mtl
o xObject

g New Game Object
v 2.716428 0.9565825 0.3567286
v 2.521481 0.9559137 0.3567266
v 2.377794 0.7015429 0.3567266
v 2.228162 0.9685428 0.3567266
v 2.061253 0.9727026 0.3567266
v 2.276283 0.5807961 0.3567266
v 1.94355 0.1381952 0.3567266
v 2.160727 0.136234 0.3567266
v 2.377139 0.4508839 0.3567266
v 2.55473 0.1387338 0.3567266
v 2.781895 0.1392101 0.3567266
v 2.466249 0.5816789 0.3567266
v 2.781895 0.13921 0.4978256
v 2.55473 0.1387337 0.4978256
v 2.466249 0.5816788 0.4978256
v 2.377139 0.4508839 0.4978256
v 2.276283 0.5807961 0.4978256
v 2.160727 0.1362339 0.4978256
v 1.94355 0.138195 0.4978256
v 2.377794 0.7015429 0.4978256
v 2.228161 0.9685428 0.4978256
v 2.061253 0.9727025 0.4978256
v 2.521481 0.9559136 0.4978256
v 2.716428 0.9565825 0.4978275
v 2.466249 0.5816789 0.3567266
v 2.716428 0.9565825 0.3567286
v 2.466249 0.5816788 0.4978256
v 2.716428 0.9565825 0.4978275
v 2.716428 0.9565825 0.3567286
v 2.521481 0.9559137 0.3567266
v 2.716428 0.9565825 0.4978275
v 2.521481 0.9559136 0.4978256
v 2.521481 0.9559137 0.3567266
v 2.377794 0.7015429 0.3567266
v 2.521481 0.9559136 0.4978256
v 2.377794 0.7015429 0.4978256
v 2.228162 0.9685428 0.3567266
v 2.061253 0.9727026 0.3567266
v 2.228161 0.9685428 0.4978256
v 2.061253 0.9727025 0.4978256
v 2.061253 0.9727026 0.3567266
v 2.276283 0.5807961 0.3567266
v 2.061253 0.9727025 0.4978256
v 2.276283 0.5807961 0.4978256
v 2.377794 0.7015429 0.3567266
v 2.228162 0.9685428 0.3567266
v 2.377794 0.7015429 0.4978256
v 2.228161 0.9685428 0.4978256
v 1.94355 0.1381952 0.3567266
v 2.160727 0.136234 0.3567266
v 1.94355 0.138195 0.4978256
v 2.160727 0.1362339 0.4978256
v 2.276283 0.5807961 0.3567266
v 1.94355 0.1381952 0.3567266
v 2.276283 0.5807961 0.4978256
v 1.94355 0.138195 0.4978256
v 2.160727 0.136234 0.3567266
v 2.377139 0.4508839 0.3567266
v 2.160727 0.1362339 0.4978256
v 2.377139 0.4508839 0.4978256
v 2.377139 0.4508839 0.3567266
v 2.55473 0.1387338 0.3567266
v 2.377139 0.4508839 0.4978256
v 2.55473 0.1387337 0.4978256
v 2.55473 0.1387338 0.3567266
v 2.781895 0.1392101 0.3567266
v 2.55473 0.1387337 0.4978256
v 2.781895 0.13921 0.4978256
v 2.781895 0.1392101 0.3567266
v 2.466249 0.5816789 0.3567266
v 2.781895 0.13921 0.4978256
v 2.466249 0.5816788 0.4978256

vn 9.788915E-06 -1.444725E-06 -1
vn 6.336858E-06 -9.352436E-07 -1
vn 0 0 -0.9999999
vn 0 0 -1
vn 0 0 -1
vn 0 0 -1
vn 0 0 -1
vn 0 0 -1
vn 0 0 -1
vn 0 0 -1
vn 0 0 -1
vn 2.288063E-06 -3.376904E-07 -1
vn 0 0 1
vn 0 0 1
vn -2.288065E-06 3.376908E-07 1
vn 0 0 0.9999999
vn 0 0 1
vn 0 0 1
vn 0 0 1
vn 0 0 0.9999999
vn 0 0 0.9999999
vn 0 0 1
vn -6.336864E-06 9.352444E-07 1
vn -9.788915E-06 1.444725E-06 1
vn 0.8318011 -0.5550739 1.171035E-06
vn 0.8318011 -0.5550739 1.1713E-06
vn 0.8318011 -0.5550739 1.1713E-06
vn 0.8318011 -0.5550739 1.171564E-06
vn -0.003431092 0.9999942 4.166314E-07
vn -0.003431092 0.999994 4.167525E-07
vn -0.003431092 0.999994 4.167525E-07
vn -0.003431092 0.999994 4.168737E-07
vn -0.8706915 0.4918296 -1.263466E-06
vn -0.8706916 0.4918292 -4.961751E-07
vn -0.8706916 0.4918292 -4.961751E-07
vn -0.8706918 0.4918289 2.711158E-07
vn 0.02491452 0.9996896 4.643991E-07
vn 0.02491454 0.9996896 4.422199E-07
vn 0.02491454 0.9996896 4.422199E-07
vn 0.02491456 0.9996896 4.200406E-07
vn -0.8767046 -0.481029 -2.032018E-07
vn -0.8767046 -0.481029 -2.197246E-07
vn -0.8767046 -0.481029 -2.197246E-07
vn -0.8767046 -0.481029 -2.362474E-07
vn 0.8723489 0.4888837 2.065199E-07
vn 0.8723488 0.488884 9.658715E-07
vn 0.8723488 0.488884 9.658715E-07
vn 0.8723486 0.4888844 1.725223E-06
vn -0.009029658 -0.9999592 -8.524573E-07
vn -0.009029654 -0.9999592 -8.483785E-07
vn -0.009029654 -0.9999592 -8.483785E-07
vn -0.009029652 -0.9999592 -8.442998E-07
vn -0.7993209 0.6009044 2.538409E-07
vn -0.7993209 0.6009044 3.155851E-08
vn -0.7993209 0.6009044 3.155851E-08
vn -0.7993208 0.6009045 -1.907238E-07
vn 0.823931 -0.5666902 -4.787756E-07
vn 0.823931 -0.5666901 -3.776582E-07
vn 0.823931 -0.5666901 -3.776582E-07
vn 0.823931 -0.5666901 -2.76541E-07
vn -0.8691779 -0.4944994 -2.088921E-07
vn -0.869178 -0.4944994 -3.249938E-07
vn -0.869178 -0.4944994 -3.249938E-07
vn -0.8691781 -0.4944994 -4.410956E-07
vn 0.002096712 -0.9999978 -8.448609E-07
vn 0.002096714 -0.9999978 -8.4306E-07
vn 0.002096714 -0.9999978 -8.4306E-07
vn 0.002096715 -0.9999978 -8.412592E-07
vn 0.814084 0.5807472 1.866231E-06
vn 0.8140841 0.5807472 1.710333E-06
vn 0.8140841 0.5807472 1.710333E-06
vn 0.814084 0.5807471 1.554436E-06

vt 0.1455722 0.01039803
vt 0.3405187 0.009729148
vt 0.4842057 -0.2446416
vt 0.6338384 0.0223583
vt 0.8007474 0.02651805
vt 0.5857167 -0.3653884
vt 0.9184502 -0.8079892
vt 0.7012734 -0.8099504
vt 0.4848609 -0.4953005
vt 0.3072701 -0.8074506
vt 0.08010507 -0.8069743
vt 0.3957512 -0.3645056
vt -0.08010507 -0.8069743
vt -0.3072701 -0.8074506
vt -0.3957512 -0.3645056
vt -0.4848609 -0.4953005
vt -0.5857167 -0.3653884
vt -0.7012734 -0.8099504
vt -0.9184502 -0.8079892
vt -0.4842057 -0.2446416
vt -0.6338384 0.0223583
vt -0.8007474 0.02651805
vt -0.3405187 0.009729148
vt -0.1455722 0.01039803
vt 0.5228673 1.892619E-06
vt 0.07215422 -4.546343E-08
vt 0.5228675 -0.1410971
vt 0.07215437 -0.141099
vt -0.1455356 6.30182E-09
vt -0.3404833 1.913651E-06
vt -0.1455358 -0.141099
vt -0.3404834 -0.1410971
vt -0.1590061 1.778688E-06
vt -0.4511541 1.809421E-06
vt -0.1590062 -0.1410972
vt -0.4511542 -0.1410972
vt -0.6341987 1.910039E-06
vt -0.8011595 1.908176E-06
vt -0.6341988 -0.1410971
vt -0.8011596 -0.1410971
vt 0.4084313 1.183E-06
vt -0.03859089 1.216528E-06
vt 0.4084313 -0.1410978
vt -0.03859091 -0.1410978
vt -0.02330752 1.369791E-06
vt -0.3293776 1.338126E-06
vt -0.0233075 -0.1410976
vt -0.3293775 -0.1410976
vt 0.9111169 1.33074E-06
vt 0.6939313 1.33074E-06
vt 0.911117 -0.1410976
vt 0.6939314 -0.1410976
vt -0.6440223 1.895475E-06
vt -1.197744 1.984882E-06
vt -0.6440225 -0.1410971
vt -1.197744 -0.141097
vt 1.064748 1.986516E-06
vt 0.6828594 1.926911E-06
vt 1.064748 -0.141097
vt 0.6828595 -0.1410971
vt -0.1907409 1.199231E-06
vt -0.5498734 1.258835E-06
vt -0.1907409 -0.1410978
vt -0.5498735 -0.1410977
vt 0.3089624 1.346349E-06
vt 0.08179688 1.346349E-06
vt 0.3089625 -0.1410976
vt 0.08179701 -0.1410976
vt 0.610424 1.46292E-06
vt 0.06690673 1.373513E-06
vt 0.610424 -0.1410975
vt 0.06690673 -0.1410976

g New Game Object_0
usemtl Default_Prototype
f 25/25/25 26/26/26 28/28/28 27/27/27
f 29/29/29 30/30/30 32/32/32 31/31/31
f 33/33/33 34/34/34 36/36/36 35/35/35
f 37/37/37 38/38/38 40/40/40 39/39/39
f 41/41/41 42/42/42 44/44/44 43/43/43
f 45/45/45 46/46/46 48/48/48 47/47/47
f 49/49/49 50/50/50 52/52/52 51/51/51
f 53/53/53 54/54/54 56/56/56 55/55/55
f 57/57/57 58/58/58 60/60/60 59/59/59
f 61/61/61 62/62/62 64/64/64 63/63/63
f 65/65/65 66/66/66 68/68/68 67/67/67
f 69/69/69 70/70/70 72/72/72 71/71/71

g New Game Object_1
usemtl Default_Prototype
f 2/2/2 1/1/1 12/12/12
f 2/2/2 12/12/12 3/3/3
f 5/5/5 4/4/4 6/6/6
f 3/3/3 6/6/6 4/4/4
f 3/3/3 12/12/12 6/6/6
f 6/6/6 8/8/8 7/7/7
f 6/6/6 9/9/9 8/8/8
f 12/12/12 9/9/9 6/6/6
f 12/12/12 10/10/10 9/9/9
f 11/11/11 10/10/10 12/12/12
f 15/15/15 14/14/14 13/13/13
f 16/16/16 14/14/14 15/15/15
f 17/17/17 16/16/16 15/15/15
f 18/18/18 16/16/16 17/17/17
f 19/19/19 18/18/18 17/17/17
f 17/17/17 15/15/15 20/20/20
f 21/21/21 17/17/17 20/20/20
f 17/17/17 21/21/21 22/22/22
f 20/20/20 15/15/15 23/23/23
f 15/15/15 24/24/24 23/23/23

